<?xml version="1.0" encoding="utf-8"?>
<!-- Generator: Adobe Illustrator 17.1.0, SVG Export Plug-In . SVG Version: 6.00 Build 0)  -->
<!DOCTYPE svg PUBLIC "-//W3C//DTD SVG 1.1//EN" "http://www.w3.org/Graphics/SVG/1.1/DTD/svg11.dtd">
<svg version="1.1" id="_x2014_ÎÓÈ_x5F_1" xmlns="http://www.w3.org/2000/svg" xmlns:xlink="http://www.w3.org/1999/xlink"
	 x="0px" y="0px" viewBox="0 0 155.7 155.7" enable-background="new 0 0 155.7 155.7" xml:space="preserve">
<g>
	<g>
		<g>
			<path fill="#3D3D3F" d="M57.3,114.7c-15.3,0-29.7-6-40.5-16.8C6,87,0,72.6,0,57.3C0,42,6,27.6,16.8,16.8C27.6,6,42,0,57.3,0
				C72.6,0,87,6,97.9,16.8c10.8,10.8,16.8,25.2,16.8,40.5c0,15.3-6,29.7-16.8,40.5C87,108.7,72.6,114.7,57.3,114.7z M22.9,91.7
				c19,19,49.8,19,68.8,0c19-19,19-49.8,0-68.8c-19-19-49.8-19-68.8,0C4,41.9,4,72.8,22.9,91.7z"/>
		</g>
	</g>
	<g>
		<path fill="#3D3D3F" d="M142.4,154c2.2,2.3,5.7,2.3,7.9,0.1l3.7-3.7c2.2-2.2,2.2-5.8-0.1-7.9l-52.4-49.8c-2.3-2.2-5.9-2.1-8.1,0.1
			l-0.8,0.8c-2.2,2.2-2.3,5.9-0.1,8.1L142.4,154z"/>
	</g>
</g>
</svg>
