<?xml version="1.0" encoding="utf-8"?>
<!-- Generator: Adobe Illustrator 17.1.0, SVG Export Plug-In . SVG Version: 6.00 Build 0)  -->
<!DOCTYPE svg PUBLIC "-//W3C//DTD SVG 1.1//EN" "http://www.w3.org/Graphics/SVG/1.1/DTD/svg11.dtd">
<svg version="1.1" id="Layer_1" xmlns="http://www.w3.org/2000/svg" xmlns:xlink="http://www.w3.org/1999/xlink" x="0px" y="0px"
	 viewBox="0 0 77.3 28.3" enable-background="new 0 0 77.3 28.3" xml:space="preserve">
<g>
	<g>
		<rect x="60.1" y="8.7" fill="#494849" width="17.2" height="3.3"/>
		<rect x="60.1" y="15.6" fill="#494849" width="17.2" height="3.3"/>
	</g>
	<g>
		<g>
			<g>
				<path fill="#494849" d="M15.2,5v1.9c-1.3-1.4-3.6-2.2-6-2.2c-6,0-9.2,4.1-9.2,9c0,4.8,3.2,9,9.2,9c2.5,0,4.6-0.8,6-2.4
					c0,0.6,0,1.8,0,1.8h3.7V5H15.2z M9.6,19.4c-3.5,0-5.7-2.2-5.7-5.8c0-2.8,1.5-5.8,5.7-5.8c4.3,0,5.8,3,5.8,5.8
					C15.4,17.2,13.2,19.4,9.6,19.4z"/>
			</g>
		</g>
		<path fill="#494849" d="M34.1,8.1h-4.7v9.8c0,0.7,0.3,1.5,2.2,1.5c0.6,0,1.3-0.1,2.1-0.2l0.3-0.1v3.2l-0.2,0
			c-1.1,0.2-2.2,0.2-3.6,0.2c-3,0-4.6-1.4-4.6-4.2V8.1h-3.9V5h3.9V0h3.7v5h4.7V8.1z"/>
		<g>
			<g>
				<path fill="#494849" d="M47.2,4.7c-2.4,0-4.7,0.9-6,2.2V5h-3.7v23.3h3.7v-8c1.3,1.4,3.5,2.2,6,2.2c6,0,9.2-4.2,9.2-9
					C56.4,8.8,53.1,4.7,47.2,4.7z M46.8,19.4c-3.6,0-5.8-2.2-5.8-5.8c0-2.8,1.5-5.8,5.8-5.8c4.2,0,5.7,3,5.7,5.8
					C52.5,17.2,50.3,19.4,46.8,19.4z"/>
			</g>
		</g>
	</g>
</g>
</svg>
