<?xml version="1.0" encoding="utf-8"?>
<!-- Generator: Adobe Illustrator 18.0.0, SVG Export Plug-In . SVG Version: 6.00 Build 0)  -->
<!DOCTYPE svg PUBLIC "-//W3C//DTD SVG 1.1//EN" "http://www.w3.org/Graphics/SVG/1.1/DTD/svg11.dtd">
<svg version="1.1" id="Layer_1" xmlns="http://www.w3.org/2000/svg" xmlns:xlink="http://www.w3.org/1999/xlink" x="0px" y="0px"
	 viewBox="0 0 16 17" enable-background="new 0 0 16 17" xml:space="preserve">
<g id="printer_1_">
	<path fill="#FFFFFF" d="M4.4,0v8h7.2V0H4.4z M10.2,6.8H5.8c-0.2,0-0.3-0.1-0.3-0.3c0-0.2,0.1-0.3,0.3-0.3h4.4
		c0.2,0,0.3,0.1,0.3,0.3C10.5,6.6,10.4,6.8,10.2,6.8z M10.2,4.6H5.8c-0.2,0-0.3-0.1-0.3-0.3c0-0.2,0.1-0.3,0.3-0.3h4.4
		c0.2,0,0.3,0.1,0.3,0.3C10.5,4.4,10.4,4.6,10.2,4.6z M10.2,2.4H5.8c-0.2,0-0.3-0.1-0.3-0.3c0-0.2,0.1-0.3,0.3-0.3h4.4
		c0.2,0,0.3,0.1,0.3,0.3C10.5,2.2,10.4,2.4,10.2,2.4z"/>
	<polygon fill="#FFFFFF" points="12.3,17 3.7,17 4.4,13.4 11.6,13.4 	"/>
	<path fill="#FFFFFF" d="M14.7,6.9h-2.2v1.9H3.5V6.9H1.3C0.6,6.9,0,7.5,0,8.2v5c0,0.7,0.6,1.3,1.3,1.3h2l0.2-1.1H1.8v-1h12.5v1h-1.7
		l0.2,1.1h2c0.7,0,1.3-0.6,1.3-1.3v-5C16,7.5,15.4,6.9,14.7,6.9z M2.2,10.4H1.4C1.2,10.4,1,10.2,1,10c0-0.2,0.2-0.4,0.4-0.4h0.9
		c0.2,0,0.4,0.2,0.4,0.4C2.7,10.2,2.5,10.4,2.2,10.4z M2.2,8.7H1.4C1.2,8.7,1,8.6,1,8.3c0-0.2,0.2-0.4,0.4-0.4h0.9
		c0.2,0,0.4,0.2,0.4,0.4C2.7,8.6,2.5,8.7,2.2,8.7z M14.2,11.3H8.7v-0.7h5.5V11.3z"/>
</g>
</svg>
